<?xml version="1.0" encoding="UTF-8"?><svg id="Layer_2" xmlns="http://www.w3.org/2000/svg" viewBox="0 0 92.3 58.74"><g id="Layer_1-2"><circle cx="17.29" cy="29.55" r="7.36" fill="none" stroke="#000" stroke-miterlimit="10" stroke-width="4"/><path d="m26.09,43.94c-2.5-1.73-5.54-2.74-8.81-2.74-7.55,0-13.84,5.39-15.24,12.52-.31,1.56.91,3.01,2.5,3.01h16.01" fill="none" stroke="#000" stroke-linecap="round" stroke-miterlimit="10" stroke-width="4"/><circle cx="75.01" cy="29.55" r="7.36" fill="none" stroke="#000" stroke-miterlimit="10" stroke-width="4"/><path d="m70.89,56.74h16.89c1.58,0,2.78-1.44,2.48-2.98-1.39-7.15-7.69-12.55-15.24-12.55-3.57,0-6.86,1.21-9.48,3.23" fill="none" stroke="#000" stroke-linecap="round" stroke-miterlimit="10" stroke-width="4"/><circle cx="47.21" cy="20.95" r="7.36" fill="none" stroke="#000" stroke-miterlimit="10" stroke-width="4"/><path d="m28.48,41.76c-2.52,2.93-4.32,6.5-5.1,10.44-.46,2.33,1.36,4.49,3.73,4.49h37.4c2.37,0,4.19-2.16,3.73-4.49-2.09-10.48-11.34-18.38-22.43-18.38-6.93,0-13.13,3.08-17.33,7.94" fill="none" stroke="#000" stroke-miterlimit="10" stroke-width="4"/><line x1="35.5" y1="11.94" x2="31.93" y2="8.37" fill="none" stroke="#000" stroke-linecap="round" stroke-miterlimit="10" stroke-width="4"/><line x1="47.9" y1="2" x2="47.9" y2="7.36" fill="none" stroke="#000" stroke-linecap="round" stroke-miterlimit="10" stroke-width="4"/><line x1="63.55" y1="10.87" x2="59.84" y2="13.5" fill="none" stroke="#000" stroke-linecap="round" stroke-miterlimit="10" stroke-width="4"/></g></svg>